<svg width="36" height="36" viewBox="0 0 36 36" fill="none" xmlns="http://www.w3.org/2000/svg">
<path d="M33.8509 17.126L30.375 18.8639L25.875 10.2461L29.3863 8.49047C29.6501 8.35857 29.9552 8.33554 30.2358 8.42635C30.5164 8.51716 30.7501 8.71453 30.8867 8.97598L34.345 15.599C34.4142 15.7314 34.4563 15.8763 34.4688 16.0252C34.4814 16.1741 34.4642 16.3239 34.4182 16.4661C34.3722 16.6082 34.2983 16.7398 34.2009 16.8531C34.1035 16.9664 33.9846 17.0591 33.8509 17.126V17.126Z" stroke="#00AAFF" stroke-width="2" stroke-linecap="round" stroke-linejoin="round"/>
<path d="M5.6249 18.7133L2.14898 16.9753C2.01536 16.9085 1.89637 16.8157 1.79898 16.7025C1.70159 16.5892 1.62774 16.4576 1.58174 16.3155C1.53575 16.1733 1.51852 16.0234 1.53108 15.8746C1.54363 15.7257 1.58572 15.5808 1.65487 15.4484L5.11325 8.82535C5.24977 8.5639 5.4835 8.36652 5.76412 8.27572C6.04474 8.18491 6.34979 8.20794 6.6136 8.33984L10.1249 10.0955L5.6249 18.7133Z" stroke="#00AAFF" stroke-width="2" stroke-linecap="round" stroke-linejoin="round"/>
<path d="M30.375 18.864L28.125 21.4962L22.9504 26.6708C22.813 26.8082 22.6424 26.9076 22.4552 26.9595C22.268 27.0113 22.0705 27.0138 21.8821 26.9667L13.7319 24.9292C13.579 24.8909 13.4359 24.821 13.3117 24.724L5.625 18.7133" stroke="#00AAFF" stroke-width="2" stroke-linecap="round" stroke-linejoin="round"/>
<path d="M28.1249 21.4962L21.9374 16.9962L20.1374 18.3462C19.3585 18.9304 18.4111 19.2462 17.4374 19.2462C16.4638 19.2462 15.5164 18.9304 14.7374 18.3462L13.9751 17.7745C13.8462 17.6778 13.7395 17.5545 13.6624 17.413C13.5852 17.2715 13.5394 17.115 13.528 16.9542C13.5166 16.7935 13.5398 16.6321 13.5962 16.4811C13.6525 16.3301 13.7407 16.193 13.8547 16.079L19.3579 10.5757C19.4624 10.4713 19.5864 10.3884 19.7229 10.3319C19.8594 10.2753 20.0057 10.2462 20.1534 10.2462H25.8749" stroke="#00AAFF" stroke-width="2" stroke-linecap="round" stroke-linejoin="round"/>
<path d="M10.2058 10.0953L17.4227 7.99137C17.6805 7.91622 17.9567 7.93575 18.2013 8.04645L23.0625 10.2461" stroke="#00AAFF" stroke-width="2" stroke-linecap="round" stroke-linejoin="round"/>
<path d="M15.75 29.9337L11.5116 28.8741C11.3396 28.8311 11.1803 28.748 11.0465 28.6317L7.875 25.875" stroke="#00AAFF" stroke-width="2" stroke-linecap="round" stroke-linejoin="round"/>
</svg>
