<svg width="36" height="36" viewBox="0 0 36 36" fill="none" xmlns="http://www.w3.org/2000/svg">
<g clip-path="url(#clip0_750_41312)">
<path d="M30.375 30.375V16.2477C30.375 16.0909 30.3422 15.9359 30.2788 15.7925C30.2154 15.6492 30.1228 15.5207 30.0068 15.4152L18.756 5.18687C18.5489 4.9986 18.2791 4.89428 17.9992 4.89429C17.7193 4.8943 17.4495 4.99863 17.2424 5.18692L5.99317 15.4152C5.87721 15.5207 5.78455 15.6492 5.72115 15.7925C5.65775 15.9359 5.625 16.0909 5.625 16.2476V30.375" stroke="#00AAFF" stroke-width="2" stroke-linecap="round" stroke-linejoin="round"/>
<path d="M2.25 30.375H33.75" stroke="#00AAFF" stroke-width="2" stroke-linecap="round" stroke-linejoin="round"/>
<path d="M21.3743 30.3739V22.4989C21.3743 22.2005 21.2557 21.9144 21.0448 21.7034C20.8338 21.4924 20.5476 21.3739 20.2493 21.3739H15.7493C15.4509 21.3739 15.1648 21.4924 14.9538 21.7034C14.7428 21.9144 14.6243 22.2005 14.6243 22.4989V30.3739" stroke="#00AAFF" stroke-width="2" stroke-linecap="round" stroke-linejoin="round"/>
</g>
<defs>
<clipPath id="clip0_750_41312">
<rect width="36" height="36" fill="white"/>
</clipPath>
</defs>
</svg>
