<svg width="36" height="36" viewBox="0 0 36 36" fill="none" xmlns="http://www.w3.org/2000/svg">
<g clip-path="url(#clip0_750_41304)">
<path d="M26.0143 5.21258L20.1134 11.1135L20.9089 15.0909L24.8863 15.8864L30.7872 9.98555L30.7878 9.98531C31.5182 11.7094 31.6929 13.6183 31.2875 15.4464C30.8822 17.2744 29.917 18.9306 28.5263 20.1844C27.1357 21.4382 25.3887 22.2272 23.5286 22.4416C21.6684 22.656 19.7878 22.2852 18.1483 21.3807L18.1485 21.3804L10.2613 30.5114C9.62829 31.1438 8.77003 31.4989 7.87526 31.4986C6.98049 31.4983 6.12244 31.1428 5.48974 30.5101C4.85704 29.8774 4.50148 29.0193 4.50122 28.1246C4.50097 27.2298 4.85604 26.3715 5.48838 25.7385L14.6193 17.8515L14.6192 17.8516C13.7147 16.2121 13.3438 14.3314 13.5582 12.4713C13.7726 10.6112 14.5616 8.86417 15.8154 7.47349C17.0692 6.0828 18.7254 5.11761 20.5534 4.71228C22.3815 4.30694 24.2904 4.48162 26.0145 5.21201L26.0143 5.21258Z" stroke="#00AAFF" stroke-width="2" stroke-linecap="round" stroke-linejoin="round"/>
</g>
<defs>
<clipPath id="clip0_750_41304">
<rect width="36" height="36" fill="white"/>
</clipPath>
</defs>
</svg>
