<svg width="50" height="50" viewBox="0 0 50 50" fill="none" xmlns="http://www.w3.org/2000/svg">
<g clip-path="url(#clip0_750_41539)">
<path opacity="0.2" d="M10.9375 7.81372H39.0625C39.4769 7.81372 39.8743 7.97834 40.1674 8.27137C40.4604 8.56439 40.625 8.96182 40.625 9.37622V39.0637C40.625 40.3069 40.1311 41.4992 39.2521 42.3783C38.373 43.2574 37.1807 43.7512 35.9375 43.7512H14.0625C12.8193 43.7512 11.627 43.2574 10.7479 42.3783C9.86886 41.4992 9.375 40.3069 9.375 39.0637V9.37622C9.375 8.96182 9.53962 8.56439 9.83265 8.27137C10.1257 7.97834 10.5231 7.81372 10.9375 7.81372Z" fill="#FFBF00"/>
<path d="M18.75 25.0012H31.25" stroke="#FFBF00" stroke-width="2.5" stroke-linecap="round" stroke-linejoin="round"/>
<path d="M18.75 31.2512H31.25" stroke="#FFBF00" stroke-width="2.5" stroke-linecap="round" stroke-linejoin="round"/>
<path d="M10.9375 7.81372H39.0625C39.4769 7.81372 39.8743 7.97834 40.1674 8.27137C40.4604 8.56439 40.625 8.96182 40.625 9.37622V39.0637C40.625 40.3069 40.1311 41.4992 39.2521 42.3783C38.373 43.2574 37.1807 43.7512 35.9375 43.7512H14.0625C12.8193 43.7512 11.627 43.2574 10.7479 42.3783C9.86886 41.4992 9.375 40.3069 9.375 39.0637V9.37622C9.375 8.96182 9.53962 8.56439 9.83265 8.27137C10.1257 7.97834 10.5231 7.81372 10.9375 7.81372Z" stroke="#FFBF00" stroke-width="2.5" stroke-linecap="round" stroke-linejoin="round"/>
<path d="M15.625 4.68872V10.9387" stroke="#FFBF00" stroke-width="2.5" stroke-linecap="round" stroke-linejoin="round"/>
<path d="M25 4.68872V10.9387" stroke="#FFBF00" stroke-width="2.5" stroke-linecap="round" stroke-linejoin="round"/>
<path d="M34.375 4.68872V10.9387" stroke="#FFBF00" stroke-width="2.5" stroke-linecap="round" stroke-linejoin="round"/>
</g>
<defs>
<clipPath id="clip0_750_41539">
<rect width="50" height="50" fill="white"/>
</clipPath>
</defs>
</svg>
